<mxfile host="app.diagrams.net" agent="Mozilla/5.0 (Macintosh; Intel Mac OS X 10_15_7) AppleWebKit/537.36 (KHTML, like Gecko) Chrome/131.0.0.0 Safari/537.36" version="25.0.3">
  <diagram id="u1GmasTMBnHDjQ_4ipYR" name="diagram">
    <mxGraphModel dx="2074" dy="1072" grid="1" gridSize="10" guides="1" tooltips="1" connect="1" arrows="1" fold="1" page="1" pageScale="1" pageWidth="850" pageHeight="1100" math="0" shadow="0">
      <root>
        <mxCell id="0" />
        <mxCell id="1" parent="0" />
        <mxCell id="fpU_tKOSEVNSieGjS33L-60" value="" style="rounded=0;whiteSpace=wrap;html=1;fillColor=#FFFFCC;" parent="1" vertex="1">
          <mxGeometry x="519" y="900" width="200" height="20" as="geometry" />
        </mxCell>
        <mxCell id="IWkwQokuJmNbkloqFcf0-1" value="fir" style="rounded=0;whiteSpace=wrap;html=1;fillColor=none;" parent="1" vertex="1">
          <mxGeometry x="400" y="1020" width="200" height="140" as="geometry" />
        </mxCell>
        <mxCell id="IWkwQokuJmNbkloqFcf0-2" value="" style="rounded=0;whiteSpace=wrap;html=1;fillColor=none;" parent="1" vertex="1">
          <mxGeometry x="40" y="720" width="200" height="140" as="geometry" />
        </mxCell>
        <mxCell id="IWkwQokuJmNbkloqFcf0-3" value="" style="rounded=0;whiteSpace=wrap;html=1;fillColor=default;" parent="1" vertex="1">
          <mxGeometry x="519" y="720" width="200" height="140" as="geometry" />
        </mxCell>
        <mxCell id="IWkwQokuJmNbkloqFcf0-4" value="" style="rounded=0;whiteSpace=wrap;html=1;fillColor=none;" parent="1" vertex="1">
          <mxGeometry x="280" y="960" width="200" height="20" as="geometry" />
        </mxCell>
        <mxCell id="IWkwQokuJmNbkloqFcf0-5" value="" style="rounded=0;whiteSpace=wrap;html=1;fillColor=none;" parent="1" vertex="1">
          <mxGeometry x="519" y="960" width="200" height="20" as="geometry" />
        </mxCell>
        <mxCell id="IWkwQokuJmNbkloqFcf0-7" value="" style="rounded=0;whiteSpace=wrap;html=1;fillColor=none;" parent="1" vertex="1">
          <mxGeometry x="400" y="20" width="200" height="140" as="geometry" />
        </mxCell>
        <mxCell id="IWkwQokuJmNbkloqFcf0-8" value="pairwise dot product" style="text;html=1;align=center;verticalAlign=middle;whiteSpace=wrap;rounded=0;fillColor=none;" parent="1" vertex="1">
          <mxGeometry x="160" y="670" width="200" height="40" as="geometry" />
        </mxCell>
        <mxCell id="IWkwQokuJmNbkloqFcf0-9" value="&lt;pre style=&quot;box-sizing: border-box; overflow: auto; font-size: 14px; padding: 1px 0px; margin-top: 0px; margin-bottom: 0px; line-height: inherit; word-break: break-all; overflow-wrap: break-word; background-color: rgb(255, 255, 255); border: 0px; border-radius: 0px; text-wrap-mode: wrap; vertical-align: baseline; text-align: left;&quot;&gt;v_proj&lt;/pre&gt;" style="text;html=1;align=center;verticalAlign=middle;whiteSpace=wrap;rounded=0;fillColor=none;" parent="1" vertex="1">
          <mxGeometry x="519" y="980" width="200" height="40" as="geometry" />
        </mxCell>
        <mxCell id="IWkwQokuJmNbkloqFcf0-10" value="&lt;pre style=&quot;box-sizing: border-box; overflow: auto; font-size: 14px; padding: 1px 0px; margin-top: 0px; margin-bottom: 0px; line-height: inherit; word-break: break-all; overflow-wrap: break-word; background-color: rgb(255, 255, 255); border: 0px; border-radius: 0px; text-wrap-mode: wrap; vertical-align: baseline; text-align: left;&quot;&gt;k_proj&lt;/pre&gt;" style="text;html=1;align=center;verticalAlign=middle;whiteSpace=wrap;rounded=0;fillColor=none;" parent="1" vertex="1">
          <mxGeometry x="280" y="980" width="200" height="40" as="geometry" />
        </mxCell>
        <mxCell id="IWkwQokuJmNbkloqFcf0-11" value="&lt;pre style=&quot;box-sizing: border-box; overflow: auto; font-size: 14px; padding: 1px 0px; margin-top: 0px; margin-bottom: 0px; line-height: inherit; word-break: break-all; overflow-wrap: break-word; background-color: rgb(255, 255, 255); border: 0px; border-radius: 0px; text-wrap-mode: wrap; vertical-align: baseline; text-align: left;&quot;&gt;q_proj&lt;/pre&gt;" style="text;html=1;align=center;verticalAlign=middle;whiteSpace=wrap;rounded=0;fillColor=none;" parent="1" vertex="1">
          <mxGeometry x="50" y="980" width="200" height="40" as="geometry" />
        </mxCell>
        <mxCell id="IWkwQokuJmNbkloqFcf0-13" value="repeat kv" style="text;html=1;align=center;verticalAlign=middle;whiteSpace=wrap;rounded=0;fillColor=none;" parent="1" vertex="1">
          <mxGeometry x="305" y="860" width="150" height="40" as="geometry" />
        </mxCell>
        <mxCell id="IWkwQokuJmNbkloqFcf0-14" value="repeat kv" style="text;html=1;align=center;verticalAlign=middle;whiteSpace=wrap;rounded=0;fillColor=none;" parent="1" vertex="1">
          <mxGeometry x="544" y="860" width="150" height="40" as="geometry" />
        </mxCell>
        <mxCell id="IWkwQokuJmNbkloqFcf0-15" value="matrix multiplication" style="text;html=1;align=center;verticalAlign=middle;whiteSpace=wrap;rounded=0;fillColor=none;" parent="1" vertex="1">
          <mxGeometry x="425" y="160" width="150" height="40" as="geometry" />
        </mxCell>
        <mxCell id="IWkwQokuJmNbkloqFcf0-16" value="sequence length" style="text;html=1;align=center;verticalAlign=middle;whiteSpace=wrap;rounded=0;fillColor=none;" parent="1" vertex="1">
          <mxGeometry x="400" y="1150" width="200" height="10" as="geometry" />
        </mxCell>
        <mxCell id="IWkwQokuJmNbkloqFcf0-17" value="embedding size" style="rounded=0;whiteSpace=wrap;html=1;rotation=-90;strokeColor=none;fillColor=none;" parent="1" vertex="1">
          <mxGeometry x="335" y="1085" width="140" height="10" as="geometry" />
        </mxCell>
        <mxCell id="IWkwQokuJmNbkloqFcf0-18" value="embedding size" style="rounded=0;whiteSpace=wrap;html=1;rotation=-90;strokeColor=none;fillColor=none;" parent="1" vertex="1">
          <mxGeometry x="454" y="785" width="140" height="10" as="geometry" />
        </mxCell>
        <mxCell id="IWkwQokuJmNbkloqFcf0-23" value="" style="rounded=0;whiteSpace=wrap;html=1;dashed=1;fillColor=none;" parent="1" vertex="1">
          <mxGeometry x="40" y="720" width="200" height="10" as="geometry" />
        </mxCell>
        <mxCell id="IWkwQokuJmNbkloqFcf0-24" value="sequence length" style="text;html=1;align=center;verticalAlign=middle;whiteSpace=wrap;rounded=0;fillColor=none;" parent="1" vertex="1">
          <mxGeometry x="519" y="850" width="200" height="10" as="geometry" />
        </mxCell>
        <mxCell id="IWkwQokuJmNbkloqFcf0-25" value="sequence length" style="text;html=1;align=center;verticalAlign=middle;whiteSpace=wrap;rounded=0;fillColor=none;" parent="1" vertex="1">
          <mxGeometry x="40" y="850" width="200" height="10" as="geometry" />
        </mxCell>
        <mxCell id="IWkwQokuJmNbkloqFcf0-28" value="" style="rounded=0;whiteSpace=wrap;html=1;dashed=1;fillColor=none;" parent="1" vertex="1">
          <mxGeometry x="40" y="730" width="200" height="10" as="geometry" />
        </mxCell>
        <mxCell id="IWkwQokuJmNbkloqFcf0-29" value="" style="rounded=0;whiteSpace=wrap;html=1;dashed=1;fillColor=none;" parent="1" vertex="1">
          <mxGeometry x="40" y="740" width="200" height="10" as="geometry" />
        </mxCell>
        <mxCell id="IWkwQokuJmNbkloqFcf0-30" value="" style="rounded=0;whiteSpace=wrap;html=1;dashed=1;fillColor=none;" parent="1" vertex="1">
          <mxGeometry x="40" y="750" width="200" height="10" as="geometry" />
        </mxCell>
        <mxCell id="IWkwQokuJmNbkloqFcf0-31" value="" style="rounded=0;whiteSpace=wrap;html=1;dashed=1;fillColor=none;" parent="1" vertex="1">
          <mxGeometry x="40" y="760" width="200" height="10" as="geometry" />
        </mxCell>
        <mxCell id="IWkwQokuJmNbkloqFcf0-32" value="" style="rounded=0;whiteSpace=wrap;html=1;dashed=1;fillColor=none;" parent="1" vertex="1">
          <mxGeometry x="40" y="770" width="200" height="10" as="geometry" />
        </mxCell>
        <mxCell id="IWkwQokuJmNbkloqFcf0-33" value="" style="rounded=0;whiteSpace=wrap;html=1;dashed=1;fillColor=none;" parent="1" vertex="1">
          <mxGeometry x="40" y="780" width="200" height="10" as="geometry" />
        </mxCell>
        <mxCell id="IWkwQokuJmNbkloqFcf0-34" value="" style="rounded=0;whiteSpace=wrap;html=1;dashed=1;fillColor=none;" parent="1" vertex="1">
          <mxGeometry x="40" y="790" width="200" height="10" as="geometry" />
        </mxCell>
        <mxCell id="IWkwQokuJmNbkloqFcf0-35" value="" style="rounded=0;whiteSpace=wrap;html=1;dashed=1;fillColor=none;" parent="1" vertex="1">
          <mxGeometry x="40" y="800" width="200" height="10" as="geometry" />
        </mxCell>
        <mxCell id="IWkwQokuJmNbkloqFcf0-36" value="" style="rounded=0;whiteSpace=wrap;html=1;dashed=1;fillColor=none;" parent="1" vertex="1">
          <mxGeometry x="40" y="810" width="200" height="10" as="geometry" />
        </mxCell>
        <mxCell id="IWkwQokuJmNbkloqFcf0-37" value="" style="rounded=0;whiteSpace=wrap;html=1;dashed=1;fillColor=none;" parent="1" vertex="1">
          <mxGeometry x="40" y="820" width="200" height="10" as="geometry" />
        </mxCell>
        <mxCell id="IWkwQokuJmNbkloqFcf0-38" value="" style="rounded=0;whiteSpace=wrap;html=1;dashed=1;fillColor=none;" parent="1" vertex="1">
          <mxGeometry x="40" y="830" width="200" height="10" as="geometry" />
        </mxCell>
        <mxCell id="IWkwQokuJmNbkloqFcf0-39" value="" style="rounded=0;whiteSpace=wrap;html=1;dashed=1;fillColor=none;" parent="1" vertex="1">
          <mxGeometry x="40" y="850" width="200" height="10" as="geometry" />
        </mxCell>
        <mxCell id="IWkwQokuJmNbkloqFcf0-40" value="" style="rounded=0;whiteSpace=wrap;html=1;fillColor=none;" parent="1" vertex="1">
          <mxGeometry x="280" y="720" width="200" height="140" as="geometry" />
        </mxCell>
        <mxCell id="IWkwQokuJmNbkloqFcf0-41" value="" style="rounded=0;whiteSpace=wrap;html=1;dashed=1;fillColor=none;" parent="1" vertex="1">
          <mxGeometry x="280" y="720" width="200" height="10" as="geometry" />
        </mxCell>
        <mxCell id="IWkwQokuJmNbkloqFcf0-42" value="sequence length" style="text;html=1;align=center;verticalAlign=middle;whiteSpace=wrap;rounded=0;fillColor=none;" parent="1" vertex="1">
          <mxGeometry x="280" y="850" width="200" height="10" as="geometry" />
        </mxCell>
        <mxCell id="IWkwQokuJmNbkloqFcf0-43" value="" style="rounded=0;whiteSpace=wrap;html=1;dashed=1;fillColor=none;" parent="1" vertex="1">
          <mxGeometry x="280" y="730" width="200" height="10" as="geometry" />
        </mxCell>
        <mxCell id="IWkwQokuJmNbkloqFcf0-44" value="" style="rounded=0;whiteSpace=wrap;html=1;dashed=1;fillColor=none;" parent="1" vertex="1">
          <mxGeometry x="280" y="740" width="200" height="10" as="geometry" />
        </mxCell>
        <mxCell id="IWkwQokuJmNbkloqFcf0-45" value="" style="rounded=0;whiteSpace=wrap;html=1;dashed=1;fillColor=none;" parent="1" vertex="1">
          <mxGeometry x="280" y="750" width="200" height="10" as="geometry" />
        </mxCell>
        <mxCell id="IWkwQokuJmNbkloqFcf0-46" value="" style="rounded=0;whiteSpace=wrap;html=1;dashed=1;fillColor=none;" parent="1" vertex="1">
          <mxGeometry x="280" y="760" width="200" height="10" as="geometry" />
        </mxCell>
        <mxCell id="IWkwQokuJmNbkloqFcf0-47" value="" style="rounded=0;whiteSpace=wrap;html=1;dashed=1;fillColor=none;" parent="1" vertex="1">
          <mxGeometry x="280" y="770" width="200" height="10" as="geometry" />
        </mxCell>
        <mxCell id="IWkwQokuJmNbkloqFcf0-48" value="" style="rounded=0;whiteSpace=wrap;html=1;dashed=1;fillColor=none;" parent="1" vertex="1">
          <mxGeometry x="280" y="780" width="200" height="10" as="geometry" />
        </mxCell>
        <mxCell id="IWkwQokuJmNbkloqFcf0-49" value="" style="rounded=0;whiteSpace=wrap;html=1;dashed=1;fillColor=none;" parent="1" vertex="1">
          <mxGeometry x="280" y="790" width="200" height="10" as="geometry" />
        </mxCell>
        <mxCell id="IWkwQokuJmNbkloqFcf0-50" value="" style="rounded=0;whiteSpace=wrap;html=1;dashed=1;fillColor=none;" parent="1" vertex="1">
          <mxGeometry x="280" y="800" width="200" height="10" as="geometry" />
        </mxCell>
        <mxCell id="IWkwQokuJmNbkloqFcf0-51" value="" style="rounded=0;whiteSpace=wrap;html=1;dashed=1;fillColor=none;" parent="1" vertex="1">
          <mxGeometry x="280" y="810" width="200" height="10" as="geometry" />
        </mxCell>
        <mxCell id="IWkwQokuJmNbkloqFcf0-52" value="" style="rounded=0;whiteSpace=wrap;html=1;dashed=1;fillColor=none;" parent="1" vertex="1">
          <mxGeometry x="280" y="820" width="200" height="10" as="geometry" />
        </mxCell>
        <mxCell id="IWkwQokuJmNbkloqFcf0-53" value="" style="rounded=0;whiteSpace=wrap;html=1;dashed=1;fillColor=none;" parent="1" vertex="1">
          <mxGeometry x="280" y="830" width="200" height="10" as="geometry" />
        </mxCell>
        <mxCell id="IWkwQokuJmNbkloqFcf0-54" value="" style="rounded=0;whiteSpace=wrap;html=1;dashed=1;fillColor=none;" parent="1" vertex="1">
          <mxGeometry x="280" y="850" width="200" height="10" as="geometry" />
        </mxCell>
        <mxCell id="IWkwQokuJmNbkloqFcf0-58" value="num heads x head dim" style="rounded=0;whiteSpace=wrap;html=1;rotation=-90;strokeColor=none;fillColor=none;" parent="1" vertex="1">
          <mxGeometry x="204" y="785" width="140" height="10" as="geometry" />
        </mxCell>
        <mxCell id="IWkwQokuJmNbkloqFcf0-59" value="num heads x head dim" style="rounded=0;whiteSpace=wrap;html=1;rotation=-90;strokeColor=none;fillColor=none;" parent="1" vertex="1">
          <mxGeometry x="-36" y="785" width="140" height="10" as="geometry" />
        </mxCell>
        <mxCell id="IWkwQokuJmNbkloqFcf0-62" value="sequence length" style="text;html=1;align=center;verticalAlign=middle;whiteSpace=wrap;rounded=0;fillColor=none;" parent="1" vertex="1">
          <mxGeometry x="400" y="150" width="200" height="10" as="geometry" />
        </mxCell>
        <mxCell id="IWkwQokuJmNbkloqFcf0-63" value="embedding size" style="rounded=0;whiteSpace=wrap;html=1;rotation=-90;strokeColor=none;fillColor=none;" parent="1" vertex="1">
          <mxGeometry x="335" y="85" width="140" height="10" as="geometry" />
        </mxCell>
        <mxCell id="IWkwQokuJmNbkloqFcf0-64" value="&lt;pre style=&quot;box-sizing: border-box; overflow: auto; font-size: 14px; padding: 1px 0px; margin-top: 0px; margin-bottom: 0px; line-height: inherit; word-break: break-all; overflow-wrap: break-word; background-color: rgb(255, 255, 255); border: 0px; border-radius: 0px; text-wrap-mode: wrap; vertical-align: baseline; text-align: left;&quot;&gt; hidden_states &lt;/pre&gt;" style="text;html=1;align=center;verticalAlign=middle;whiteSpace=wrap;rounded=0;fillColor=none;" parent="1" vertex="1">
          <mxGeometry x="400" y="1070" width="200" height="40" as="geometry" />
        </mxCell>
        <mxCell id="IWkwQokuJmNbkloqFcf0-65" value="&lt;pre style=&quot;box-sizing: border-box; overflow: auto; font-size: 14px; padding: 1px 0px; margin-top: 0px; margin-bottom: 0px; line-height: inherit; word-break: break-all; overflow-wrap: break-word; background-color: rgb(255, 255, 255); border: 0px; border-radius: 0px; text-wrap-mode: wrap; vertical-align: baseline; text-align: left;&quot;&gt; key_states &lt;/pre&gt;" style="text;html=1;align=center;verticalAlign=middle;whiteSpace=wrap;rounded=0;fillColor=none;" parent="1" vertex="1">
          <mxGeometry x="519" y="770" width="200" height="40" as="geometry" />
        </mxCell>
        <mxCell id="IWkwQokuJmNbkloqFcf0-66" value="&lt;pre style=&quot;box-sizing: border-box; overflow: auto; font-size: 14px; padding: 1px 0px; margin-top: 0px; margin-bottom: 0px; line-height: inherit; word-break: break-all; overflow-wrap: break-word; background-color: rgb(255, 255, 255); border: 0px; border-radius: 0px; text-wrap-mode: wrap; vertical-align: baseline; text-align: left;&quot;&gt; value_states &lt;/pre&gt;" style="text;html=1;align=center;verticalAlign=middle;whiteSpace=wrap;rounded=0;fillColor=none;" parent="1" vertex="1">
          <mxGeometry x="280" y="770" width="200" height="40" as="geometry" />
        </mxCell>
        <mxCell id="IWkwQokuJmNbkloqFcf0-67" value="&lt;pre style=&quot;box-sizing: border-box; overflow: auto; font-size: 14px; padding: 1px 0px; margin-top: 0px; margin-bottom: 0px; line-height: inherit; word-break: break-all; overflow-wrap: break-word; background-color: rgb(255, 255, 255); border: 0px; border-radius: 0px; text-wrap-mode: wrap; vertical-align: baseline; text-align: left;&quot;&gt; query_states &lt;/pre&gt;" style="text;html=1;align=center;verticalAlign=middle;whiteSpace=wrap;rounded=0;fillColor=none;" parent="1" vertex="1">
          <mxGeometry x="40" y="770" width="200" height="40" as="geometry" />
        </mxCell>
        <mxCell id="IWkwQokuJmNbkloqFcf0-70" value="&lt;pre style=&quot;box-sizing: border-box; overflow: auto; font-size: 14px; padding: 1px 0px; margin-top: 0px; margin-bottom: 0px; line-height: inherit; word-break: break-all; overflow-wrap: break-word; background-color: rgb(255, 255, 255); border: 0px; border-radius: 0px; text-wrap-mode: wrap; vertical-align: baseline; text-align: left;&quot;&gt; hidden_states &lt;/pre&gt;" style="text;html=1;align=center;verticalAlign=middle;whiteSpace=wrap;rounded=0;fillColor=none;" parent="1" vertex="1">
          <mxGeometry x="400" y="70" width="200" height="40" as="geometry" />
        </mxCell>
        <mxCell id="4iEgltxRCOFIXxIb2MCd-5" value="" style="rounded=0;whiteSpace=wrap;html=1;fillColor=#f8cecc;opacity=50;strokeColor=#b85450;" parent="1" vertex="1">
          <mxGeometry x="590" y="1020" width="10" height="140" as="geometry" />
        </mxCell>
        <mxCell id="4iEgltxRCOFIXxIb2MCd-7" value="" style="rounded=0;whiteSpace=wrap;html=1;fillColor=#f8cecc;opacity=50;strokeColor=#b85450;" parent="1" vertex="1">
          <mxGeometry x="470" y="960" width="10" height="20" as="geometry" />
        </mxCell>
        <mxCell id="4iEgltxRCOFIXxIb2MCd-8" value="" style="rounded=0;whiteSpace=wrap;html=1;fillColor=#f8cecc;opacity=50;strokeColor=#b85450;" parent="1" vertex="1">
          <mxGeometry x="709" y="960" width="10" height="20" as="geometry" />
        </mxCell>
        <mxCell id="4iEgltxRCOFIXxIb2MCd-9" value="" style="rounded=0;whiteSpace=wrap;html=1;fillColor=#f8cecc;opacity=50;strokeColor=#b85450;" parent="1" vertex="1">
          <mxGeometry x="230" y="720" width="10" height="140" as="geometry" />
        </mxCell>
        <mxCell id="4iEgltxRCOFIXxIb2MCd-10" value="" style="rounded=0;whiteSpace=wrap;html=1;fillColor=#f8cecc;opacity=50;strokeColor=#b85450;" parent="1" vertex="1">
          <mxGeometry x="590" y="20" width="10" height="140" as="geometry" />
        </mxCell>
        <mxCell id="0KepOhf4oPb4DU94vfkn-1" value="" style="rounded=0;whiteSpace=wrap;html=1;fillColor=default;" parent="1" vertex="1">
          <mxGeometry x="150" y="460" width="200" height="200" as="geometry" />
        </mxCell>
        <mxCell id="0KepOhf4oPb4DU94vfkn-2" value="causal masking +&amp;nbsp;scaling + row-wise softmax" style="text;html=1;align=center;verticalAlign=middle;whiteSpace=wrap;rounded=0;fillColor=none;" parent="1" vertex="1">
          <mxGeometry x="120" y="400" width="280" height="40" as="geometry" />
        </mxCell>
        <mxCell id="0KepOhf4oPb4DU94vfkn-3" value="" style="rounded=0;whiteSpace=wrap;html=1;fillColor=default;" parent="1" vertex="1">
          <mxGeometry x="160" y="450" width="200" height="200" as="geometry" />
        </mxCell>
        <mxCell id="0KepOhf4oPb4DU94vfkn-4" value="" style="rounded=0;whiteSpace=wrap;html=1;fillColor=default;" parent="1" vertex="1">
          <mxGeometry x="170" y="440" width="200" height="200" as="geometry" />
        </mxCell>
        <mxCell id="0KepOhf4oPb4DU94vfkn-5" value="" style="rounded=0;whiteSpace=wrap;html=1;fillColor=none;" parent="1" vertex="1">
          <mxGeometry x="160" y="200" width="200" height="200" as="geometry" />
        </mxCell>
        <mxCell id="0KepOhf4oPb4DU94vfkn-6" value="" style="endArrow=none;html=1;rounded=0;entryX=0;entryY=1;entryDx=0;entryDy=0;exitX=1;exitY=0;exitDx=0;exitDy=0;" parent="1" source="0KepOhf4oPb4DU94vfkn-5" target="0KepOhf4oPb4DU94vfkn-11" edge="1">
          <mxGeometry width="50" height="50" relative="1" as="geometry">
            <mxPoint x="400" y="280" as="sourcePoint" />
            <mxPoint x="450" y="230" as="targetPoint" />
          </mxGeometry>
        </mxCell>
        <mxCell id="0KepOhf4oPb4DU94vfkn-7" value="sequence length" style="text;html=1;align=center;verticalAlign=middle;whiteSpace=wrap;rounded=0;fillColor=none;" parent="1" vertex="1">
          <mxGeometry x="170" y="630" width="200" height="10" as="geometry" />
        </mxCell>
        <mxCell id="0KepOhf4oPb4DU94vfkn-8" value="sequence length" style="rounded=0;whiteSpace=wrap;html=1;rotation=-90;strokeColor=none;fillColor=none;" parent="1" vertex="1">
          <mxGeometry x="75" y="535" width="200" height="10" as="geometry" />
        </mxCell>
        <mxCell id="0KepOhf4oPb4DU94vfkn-10" value="sequence length" style="rounded=0;whiteSpace=wrap;html=1;rotation=-90;strokeColor=none;fillColor=none;" parent="1" vertex="1">
          <mxGeometry x="65" y="295" width="200" height="10" as="geometry" />
        </mxCell>
        <mxCell id="0KepOhf4oPb4DU94vfkn-11" value="sequence length" style="text;html=1;align=center;verticalAlign=middle;whiteSpace=wrap;rounded=0;fillColor=none;" parent="1" vertex="1">
          <mxGeometry x="160" y="390" width="200" height="10" as="geometry" />
        </mxCell>
        <mxCell id="0KepOhf4oPb4DU94vfkn-12" value="&lt;pre style=&quot;box-sizing: border-box; overflow: auto; font-size: 14px; padding: 1px 0px; margin-top: 0px; margin-bottom: 0px; line-height: inherit; word-break: break-all; overflow-wrap: break-word; background-color: rgb(255, 255, 255); border: 0px; border-radius: 0px; text-wrap-mode: wrap; vertical-align: baseline; text-align: left;&quot;&gt;attn_weight&lt;/pre&gt;" style="text;html=1;align=center;verticalAlign=middle;whiteSpace=wrap;rounded=0;fillColor=none;" parent="1" vertex="1">
          <mxGeometry x="170" y="520" width="200" height="40" as="geometry" />
        </mxCell>
        <mxCell id="0KepOhf4oPb4DU94vfkn-13" value="&lt;pre style=&quot;box-sizing: border-box; overflow: auto; font-size: 14px; padding: 1px 0px; margin-top: 0px; margin-bottom: 0px; line-height: inherit; word-break: break-all; overflow-wrap: break-word; background-color: rgb(255, 255, 255); border: 0px; border-radius: 0px; text-wrap-mode: wrap; vertical-align: baseline; text-align: left;&quot;&gt;attn_weight&lt;/pre&gt;" style="text;html=1;align=center;verticalAlign=middle;whiteSpace=wrap;rounded=0;fillColor=none;" parent="1" vertex="1">
          <mxGeometry x="160" y="280" width="200" height="40" as="geometry" />
        </mxCell>
        <mxCell id="0KepOhf4oPb4DU94vfkn-14" value="" style="rounded=0;whiteSpace=wrap;html=1;fillColor=#f8cecc;opacity=50;strokeColor=#b85450;" parent="1" vertex="1">
          <mxGeometry x="360" y="440" width="10" height="200" as="geometry" />
        </mxCell>
        <mxCell id="0KepOhf4oPb4DU94vfkn-15" value="" style="rounded=0;whiteSpace=wrap;html=1;fillColor=#f8cecc;opacity=50;strokeColor=#b85450;" parent="1" vertex="1">
          <mxGeometry x="350" y="450" width="10" height="200" as="geometry" />
        </mxCell>
        <mxCell id="0KepOhf4oPb4DU94vfkn-16" value="" style="rounded=0;whiteSpace=wrap;html=1;fillColor=#f8cecc;opacity=50;strokeColor=#b85450;" parent="1" vertex="1">
          <mxGeometry x="340" y="460" width="10" height="200" as="geometry" />
        </mxCell>
        <mxCell id="0KepOhf4oPb4DU94vfkn-17" value="" style="rounded=0;whiteSpace=wrap;html=1;fillColor=#f8cecc;opacity=50;strokeColor=#b85450;" parent="1" vertex="1">
          <mxGeometry x="350" y="200" width="10" height="200" as="geometry" />
        </mxCell>
        <mxCell id="fpU_tKOSEVNSieGjS33L-42" value="&lt;pre style=&quot;box-sizing: border-box; overflow: auto; font-size: 14px; padding: 1px 0px; margin-top: 0px; margin-bottom: 0px; line-height: inherit; word-break: break-all; overflow-wrap: break-word; background-color: rgb(255, 255, 255); border: 0px; border-radius: 0px; text-wrap-mode: wrap; vertical-align: baseline; text-align: left;&quot;&gt; position_embeddings &lt;/pre&gt;" style="text;html=1;align=center;verticalAlign=middle;whiteSpace=wrap;rounded=0;fillColor=none;" parent="1" vertex="1">
          <mxGeometry x="280" y="920" width="200" height="40" as="geometry" />
        </mxCell>
        <mxCell id="fpU_tKOSEVNSieGjS33L-43" value="&lt;pre style=&quot;box-sizing: border-box; overflow: auto; font-size: 14px; padding: 1px 0px; margin-top: 0px; margin-bottom: 0px; line-height: inherit; word-break: break-all; overflow-wrap: break-word; background-color: rgb(255, 255, 255); border: 0px; border-radius: 0px; text-wrap-mode: wrap; vertical-align: baseline; text-align: left;&quot;&gt; position_embeddings &lt;/pre&gt;" style="text;html=1;align=center;verticalAlign=middle;whiteSpace=wrap;rounded=0;fillColor=none;" parent="1" vertex="1">
          <mxGeometry x="519" y="920" width="200" height="40" as="geometry" />
        </mxCell>
        <mxCell id="fpU_tKOSEVNSieGjS33L-50" value="" style="rounded=0;whiteSpace=wrap;html=1;fillColor=#FFFFCC;" parent="1" vertex="1">
          <mxGeometry x="280" y="900" width="200" height="20" as="geometry" />
        </mxCell>
        <mxCell id="fpU_tKOSEVNSieGjS33L-52" value="" style="rounded=0;whiteSpace=wrap;html=1;dashed=1;fillColor=none;" parent="1" vertex="1">
          <mxGeometry x="280" y="910" width="200" height="10" as="geometry" />
        </mxCell>
        <mxCell id="fpU_tKOSEVNSieGjS33L-53" value="" style="rounded=0;whiteSpace=wrap;html=1;dashed=1;fillColor=none;" parent="1" vertex="1">
          <mxGeometry x="519" y="910" width="200" height="10" as="geometry" />
        </mxCell>
        <mxCell id="fpU_tKOSEVNSieGjS33L-54" value="" style="rounded=0;whiteSpace=wrap;html=1;fillColor=#f8cecc;opacity=50;strokeColor=#b85450;" parent="1" vertex="1">
          <mxGeometry x="470" y="900" width="10" height="20" as="geometry" />
        </mxCell>
        <mxCell id="fpU_tKOSEVNSieGjS33L-55" value="" style="rounded=0;whiteSpace=wrap;html=1;fillColor=#f8cecc;opacity=50;strokeColor=#b85450;" parent="1" vertex="1">
          <mxGeometry x="709" y="900" width="10" height="20" as="geometry" />
        </mxCell>
        <mxCell id="fpU_tKOSEVNSieGjS33L-56" value="" style="rounded=0;whiteSpace=wrap;html=1;dashed=1;fillColor=none;" parent="1" vertex="1">
          <mxGeometry x="280" y="970" width="200" height="10" as="geometry" />
        </mxCell>
        <mxCell id="fpU_tKOSEVNSieGjS33L-57" value="" style="rounded=0;whiteSpace=wrap;html=1;dashed=1;fillColor=none;" parent="1" vertex="1">
          <mxGeometry x="519" y="970" width="200" height="10" as="geometry" />
        </mxCell>
        <mxCell id="fpU_tKOSEVNSieGjS33L-62" value="num heads" style="text;html=1;align=center;verticalAlign=middle;whiteSpace=wrap;rounded=0;fillColor=none;rotation=-45;" parent="1" vertex="1">
          <mxGeometry x="325" y="650" width="75" height="10" as="geometry" />
        </mxCell>
      </root>
    </mxGraphModel>
  </diagram>
</mxfile>
